<svg width="201" height="42" viewBox="0 0 201 42" fill="none" xmlns="http://www.w3.org/2000/svg">
<path d="M47.4595 27.34V15.037H44.7528V19.9055H39.7613V15.037H37.0547V27.34H39.7613V22.4012H44.7528V27.34H47.4595Z" fill="#5FE9A5"/>
<path d="M57.8777 27.34V21.874C57.8777 20.5968 57.5438 19.6008 56.8759 18.8861C56.208 18.1714 55.1418 17.814 53.6771 17.814C52.8804 17.814 52.2008 17.8843 51.6383 18.0249C51.0759 18.1655 50.5369 18.3471 50.0214 18.5697L50.6893 20.6085C51.1228 20.4445 51.5329 20.3214 51.9196 20.2394C52.3179 20.1457 52.7749 20.0988 53.2905 20.0988C53.9583 20.0988 54.4622 20.2453 54.802 20.5382C55.1418 20.8311 55.3117 21.2588 55.3117 21.8212V21.9794C54.9719 21.8622 54.6203 21.7685 54.2571 21.6982C53.9056 21.6279 53.4896 21.5927 53.0092 21.5927C52.4468 21.5927 51.9313 21.6572 51.4626 21.7861C51.0056 21.9032 50.6072 22.0849 50.2674 22.3309C49.9394 22.577 49.6816 22.8875 49.4941 23.2624C49.3066 23.6374 49.2129 24.0826 49.2129 24.5982V24.6333C49.2129 25.102 49.2949 25.518 49.459 25.8812C49.6347 26.2327 49.8691 26.5315 50.162 26.7776C50.4549 27.0236 50.7947 27.2111 51.1814 27.34C51.5798 27.4571 52.0016 27.5157 52.4468 27.5157C53.103 27.5157 53.6595 27.4103 54.1165 27.1994C54.5735 26.9767 54.966 26.6838 55.2941 26.3206V27.34H57.8777ZM55.3468 24.0182C55.3468 24.5103 55.1535 24.9087 54.7668 25.2133C54.3919 25.518 53.888 25.6703 53.2553 25.6703C52.8218 25.6703 52.4703 25.5707 52.2008 25.3715C51.9313 25.1723 51.7965 24.8911 51.7965 24.5279V24.4927C51.7965 24.0709 51.9606 23.7487 52.2886 23.5261C52.6167 23.3034 53.0678 23.1921 53.642 23.1921C53.97 23.1921 54.2747 23.2273 54.5559 23.2976C54.8488 23.3562 55.1125 23.4382 55.3468 23.5436V24.0182Z" fill="#5FE9A5"/>
<path d="M68.1207 25.8285L66.5565 24.2467C66.2284 24.5513 65.8945 24.7974 65.5547 24.9848C65.2266 25.1606 64.8399 25.2485 64.3947 25.2485C64.0315 25.2485 63.7034 25.184 63.4104 25.0551C63.1175 24.9145 62.8656 24.7271 62.6547 24.4927C62.4438 24.2584 62.2797 23.983 62.1626 23.6667C62.0571 23.3503 62.0044 23.0105 62.0044 22.6473V22.6121C62.0044 22.2606 62.0571 21.9325 62.1626 21.6279C62.2797 21.3115 62.4379 21.0362 62.6371 20.8018C62.848 20.5675 63.0882 20.3859 63.3577 20.257C63.6389 20.1164 63.9494 20.0461 64.2892 20.0461C64.7696 20.0461 65.168 20.1398 65.4844 20.3273C65.8125 20.5148 66.1288 20.7667 66.4335 21.0831L68.068 19.3255C67.6227 18.8334 67.1072 18.4467 66.5213 18.1655C65.9355 17.8843 65.1973 17.7437 64.3068 17.7437C63.5803 17.7437 62.9125 17.8726 62.3032 18.1303C61.7056 18.3881 61.1901 18.7396 60.7565 19.1849C60.323 19.6301 59.9832 20.1515 59.7371 20.7491C59.4911 21.3467 59.3681 21.9794 59.3681 22.6473V22.6824C59.3681 23.3503 59.4911 23.983 59.7371 24.5806C59.9832 25.1665 60.323 25.682 60.7565 26.1273C61.1901 26.5608 61.7056 26.9064 62.3032 27.1642C62.9125 27.422 63.5686 27.5509 64.2717 27.5509C65.209 27.5509 65.9706 27.3927 66.5565 27.0763C67.1423 26.7483 67.6638 26.3323 68.1207 25.8285Z" fill="#5FE9A5"/>
<path d="M78.636 27.34L74.9276 21.6279L78.513 17.9194H75.3142L72.1858 21.3467V14.5098H69.5143V27.34H72.1858V24.4751L73.1173 23.4909L75.5779 27.34H78.636Z" fill="#5FE9A5"/>
<path d="M86.4712 24.4751V24.44C86.4712 24.0065 86.3833 23.6374 86.2076 23.3327C86.0318 23.0281 85.8092 22.7703 85.5397 22.5594C85.2702 22.3485 84.9655 22.1727 84.6258 22.0321C84.286 21.8798 83.952 21.7509 83.6239 21.6455C83.3662 21.5635 83.1201 21.4814 82.8858 21.3994C82.6631 21.3174 82.4639 21.2354 82.2882 21.1534C82.1124 21.0596 81.9718 20.9659 81.8664 20.8721C81.7609 20.7667 81.7082 20.6495 81.7082 20.5206V20.4855C81.7082 20.298 81.7902 20.1457 81.9543 20.0285C82.1183 19.8996 82.3644 19.8352 82.6924 19.8352C83.0322 19.8352 83.4247 19.9172 83.87 20.0812C84.3152 20.2336 84.7722 20.4445 85.2409 20.714L86.2603 18.8685C85.7447 18.5287 85.1765 18.2651 84.5554 18.0776C83.9462 17.8784 83.3427 17.7788 82.7452 17.7788C82.2648 17.7788 81.8136 17.8433 81.3918 17.9722C80.9817 18.1011 80.6185 18.2944 80.3021 18.5522C79.9975 18.8099 79.7514 19.1263 79.564 19.5012C79.3882 19.8645 79.3003 20.2863 79.3003 20.7667V20.8018C79.3003 21.2588 79.3824 21.6455 79.5464 21.9618C79.7221 22.2782 79.9448 22.5477 80.2143 22.7703C80.4838 22.9812 80.7825 23.157 81.1106 23.2976C81.4504 23.4265 81.7844 23.5378 82.1124 23.6315C82.3702 23.7135 82.6163 23.7897 82.8506 23.86C83.085 23.9303 83.29 24.0065 83.4658 24.0885C83.6532 24.1588 83.7997 24.2467 83.9052 24.3521C84.0106 24.4576 84.0633 24.5806 84.0633 24.7212V24.7564C84.0633 24.9673 83.9696 25.1372 83.7821 25.2661C83.6064 25.3949 83.3252 25.4594 82.9385 25.4594C82.4932 25.4594 82.0128 25.3656 81.4973 25.1782C80.9935 24.9907 80.4838 24.7095 79.9682 24.3345L78.8258 26.0921C79.4585 26.5842 80.1205 26.9475 80.8118 27.1818C81.5149 27.4044 82.2003 27.5157 82.8682 27.5157C83.372 27.5157 83.8407 27.4571 84.2742 27.34C84.7195 27.2111 85.1062 27.0236 85.4342 26.7776C85.7623 26.5315 86.0142 26.221 86.19 25.846C86.3775 25.4594 86.4712 25.0024 86.4712 24.4751Z" fill="#5FE9A5"/>
<path d="M102.426 27.34V14.5098H99.7541V19.1497C99.4378 18.7748 99.0452 18.4467 98.5765 18.1655C98.1196 17.8843 97.5337 17.7437 96.819 17.7437C96.2566 17.7437 95.7176 17.8491 95.202 18.06C94.6865 18.2709 94.2295 18.5873 93.8311 19.0091C93.4445 19.4192 93.1281 19.9289 92.882 20.5382C92.6477 21.1358 92.5305 21.8271 92.5305 22.6121V22.6473C92.5305 23.4323 92.6477 24.1295 92.882 24.7388C93.1281 25.3364 93.4503 25.846 93.8487 26.2679C94.2471 26.678 94.704 26.9885 95.2196 27.1994C95.7352 27.4103 96.2683 27.5157 96.819 27.5157C97.522 27.5157 98.102 27.3751 98.559 27.0939C99.0277 26.801 99.426 26.4319 99.7541 25.9867V27.34H102.426ZM99.7893 22.6473C99.7893 23.0339 99.7248 23.3913 99.5959 23.7194C99.4788 24.0358 99.3147 24.3111 99.1038 24.5454C98.9046 24.7681 98.6644 24.9438 98.3832 25.0727C98.1137 25.1899 97.8208 25.2485 97.5044 25.2485C97.1881 25.2485 96.8893 25.1899 96.6081 25.0727C96.3386 24.9438 96.0984 24.7681 95.8875 24.5454C95.6766 24.3111 95.5067 24.0358 95.3778 23.7194C95.2606 23.3913 95.202 23.0339 95.202 22.6473V22.6121C95.202 22.2137 95.2606 21.8564 95.3778 21.54C95.5067 21.2237 95.6766 20.9542 95.8875 20.7315C96.0984 20.4972 96.3386 20.3214 96.6081 20.2043C96.8893 20.0754 97.1881 20.0109 97.5044 20.0109C97.8208 20.0109 98.1137 20.0754 98.3832 20.2043C98.6644 20.3214 98.9046 20.4972 99.1038 20.7315C99.3147 20.9542 99.4788 21.2295 99.5959 21.5576C99.7248 21.874 99.7893 22.2255 99.7893 22.6121V22.6473Z" fill="#5FE9A5"/>
<path d="M113.249 22.8933V22.8582C113.249 22.1903 113.155 21.5517 112.968 20.9424C112.792 20.3214 112.511 19.7766 112.124 19.3079C111.749 18.8275 111.274 18.4467 110.7 18.1655C110.126 17.8843 109.447 17.7437 108.662 17.7437C107.97 17.7437 107.337 17.8726 106.763 18.1303C106.201 18.3881 105.715 18.7396 105.305 19.1849C104.894 19.6301 104.572 20.1515 104.338 20.7491C104.115 21.3467 104.004 21.9794 104.004 22.6473V22.6824C104.004 23.4089 104.127 24.0709 104.373 24.6685C104.619 25.2543 104.959 25.764 105.392 26.1976C105.838 26.6311 106.359 26.965 106.957 27.1994C107.566 27.4337 108.222 27.5509 108.925 27.5509C109.781 27.5509 110.525 27.3986 111.157 27.0939C111.79 26.7776 112.329 26.344 112.774 25.7933L111.245 24.44C110.87 24.7798 110.507 25.0259 110.155 25.1782C109.804 25.3305 109.406 25.4067 108.96 25.4067C108.363 25.4067 107.859 25.2543 107.449 24.9497C107.05 24.6333 106.787 24.1705 106.658 23.5612H113.214C113.225 23.4323 113.231 23.321 113.231 23.2273C113.243 23.1335 113.249 23.0222 113.249 22.8933ZM110.648 21.8915H106.623C106.728 21.2822 106.951 20.796 107.291 20.4328C107.642 20.0695 108.099 19.8879 108.662 19.8879C109.224 19.8879 109.675 20.0754 110.015 20.4503C110.355 20.8136 110.566 21.294 110.648 21.8915Z" fill="#5FE9A5"/>
<mask id="path-2-outside-1_244_187" maskUnits="userSpaceOnUse" x="117.371" y="14.3613" width="84" height="15" fill="black">
<rect fill="white" x="117.371" y="14.3613" width="84" height="15"/>
<path d="M128.287 22.5732V16.7998H126.036V22.6609C126.036 23.4794 125.841 24.0933 125.451 24.5026C125.062 24.9118 124.521 25.1164 123.829 25.1164C123.137 25.1164 122.596 24.9069 122.207 24.4879C121.817 24.0592 121.622 23.4258 121.622 22.5878V16.7998H119.371V22.6463C119.371 24.1566 119.766 25.2918 120.555 26.0519C121.344 26.8119 122.426 27.1919 123.8 27.1919C124.482 27.1919 125.101 27.0994 125.656 26.9142C126.211 26.7193 126.684 26.4319 127.074 26.0519C127.464 25.6621 127.761 25.1798 127.965 24.6049C128.18 24.03 128.287 23.3527 128.287 22.5732ZM138.692 27.0312V21.9593C138.692 21.0531 138.458 20.3418 137.99 19.8254C137.532 19.3089 136.879 19.0507 136.032 19.0507C135.749 19.0507 135.496 19.0848 135.271 19.153C135.047 19.2212 134.843 19.3138 134.658 19.4307C134.472 19.5477 134.302 19.6841 134.146 19.84C134 19.9861 133.863 20.1421 133.737 20.3077V19.1969H131.515V27.0312H133.737V22.6609C133.737 22.1347 133.859 21.7401 134.102 21.477C134.356 21.2042 134.697 21.0677 135.125 21.0677C135.554 21.0677 135.885 21.2042 136.119 21.477C136.353 21.7401 136.47 22.1347 136.47 22.6609V27.0312H138.692ZM144.173 18.3345V16.3613H141.835V18.3345H144.173ZM144.115 27.0312V19.1969H141.893V27.0312H144.115ZM154.27 25.7742L152.969 24.4587C152.696 24.7121 152.418 24.9167 152.136 25.0726C151.863 25.2188 151.541 25.2918 151.171 25.2918C150.869 25.2918 150.596 25.2382 150.353 25.1311C150.109 25.0141 149.899 24.8582 149.724 24.6633C149.549 24.4685 149.412 24.2395 149.315 23.9764C149.227 23.7133 149.183 23.4307 149.183 23.1286V23.0994C149.183 22.8071 149.227 22.5342 149.315 22.2809C149.412 22.0178 149.544 21.7888 149.709 21.5939C149.885 21.399 150.085 21.248 150.309 21.1408C150.543 21.0239 150.801 20.9654 151.083 20.9654C151.483 20.9654 151.814 21.0434 152.077 21.1993C152.35 21.3552 152.613 21.5647 152.867 21.8278L154.226 20.3662C153.856 19.9569 153.427 19.6354 152.94 19.4015C152.452 19.1676 151.839 19.0507 151.098 19.0507C150.494 19.0507 149.938 19.1579 149.432 19.3723C148.935 19.5866 148.506 19.879 148.145 20.2492C147.785 20.6195 147.502 21.0531 147.298 21.5501C147.093 22.047 146.991 22.5732 146.991 23.1286V23.1579C146.991 23.7133 147.093 24.2395 147.298 24.7364C147.502 25.2236 147.785 25.6524 148.145 26.0226C148.506 26.3832 148.935 26.6706 149.432 26.885C149.938 27.0994 150.484 27.2066 151.069 27.2066C151.848 27.2066 152.482 27.075 152.969 26.8119C153.456 26.5391 153.89 26.1932 154.27 25.7742ZM164.988 23.1286V23.0994C164.988 22.5342 164.88 22.0081 164.666 21.5208C164.452 21.0239 164.154 20.5952 163.774 20.2346C163.404 19.8643 162.961 19.5769 162.444 19.3723C161.928 19.1579 161.368 19.0507 160.764 19.0507C160.15 19.0507 159.584 19.1579 159.068 19.3723C158.552 19.5866 158.103 19.879 157.723 20.2492C157.343 20.6195 157.046 21.0531 156.832 21.5501C156.617 22.0373 156.51 22.5635 156.51 23.1286V23.1579C156.51 23.723 156.617 24.2541 156.832 24.751C157.046 25.2382 157.338 25.667 157.709 26.0373C158.089 26.3978 158.537 26.6852 159.053 26.8996C159.57 27.1042 160.13 27.2066 160.734 27.2066C161.348 27.2066 161.913 27.0994 162.43 26.885C162.946 26.6706 163.394 26.3783 163.774 26.008C164.154 25.6377 164.452 25.209 164.666 24.7218C164.88 24.2248 164.988 23.6938 164.988 23.1286ZM162.795 23.1579C162.795 23.4502 162.746 23.7279 162.649 23.991C162.561 24.2443 162.43 24.4685 162.254 24.6633C162.079 24.8582 161.865 25.0141 161.611 25.1311C161.368 25.2382 161.085 25.2918 160.764 25.2918C160.452 25.2918 160.169 25.2334 159.916 25.1164C159.672 24.9995 159.458 24.8436 159.273 24.6487C159.088 24.4441 158.946 24.2151 158.849 23.9618C158.751 23.6987 158.703 23.421 158.703 23.1286V23.0994C158.703 22.8071 158.746 22.5342 158.834 22.2809C158.932 22.0178 159.068 21.7888 159.243 21.5939C159.419 21.399 159.628 21.248 159.872 21.1408C160.125 21.0239 160.413 20.9654 160.734 20.9654C161.036 20.9654 161.314 21.0239 161.567 21.1408C161.821 21.2578 162.04 21.4185 162.225 21.6232C162.41 21.818 162.552 22.047 162.649 22.3101C162.746 22.5635 162.795 22.8363 162.795 23.1286V23.1579ZM172.487 21.3747V19.0507C171.824 19.0215 171.298 19.1676 170.908 19.4892C170.518 19.8108 170.211 20.2395 169.987 20.7754V19.1969H167.766V27.0312H169.987V24.1372C169.987 23.192 170.197 22.4953 170.616 22.047C171.044 21.5988 171.629 21.3747 172.37 21.3747H172.487ZM182.221 27.0312V21.9593C182.221 21.0531 181.987 20.3418 181.519 19.8254C181.061 19.3089 180.408 19.0507 179.56 19.0507C179.278 19.0507 179.024 19.0848 178.8 19.153C178.576 19.2212 178.372 19.3138 178.186 19.4307C178.001 19.5477 177.831 19.6841 177.675 19.84C177.529 19.9861 177.392 20.1421 177.266 20.3077V19.1969H175.044V27.0312H177.266V22.6609C177.266 22.1347 177.387 21.7401 177.631 21.477C177.884 21.2042 178.225 21.0677 178.654 21.0677C179.083 21.0677 179.414 21.2042 179.648 21.477C179.882 21.7401 179.999 22.1347 179.999 22.6609V27.0312H182.221ZM187.702 18.3345V16.3613H185.364V18.3345H187.702ZM187.644 27.0312V19.1969H185.422V27.0312H187.644ZM198.997 23.1286V23.0994C198.997 22.5342 198.89 22.0081 198.676 21.5208C198.461 21.0239 198.164 20.5952 197.784 20.2346C197.414 19.8643 196.97 19.5769 196.454 19.3723C195.937 19.1579 195.377 19.0507 194.773 19.0507C194.159 19.0507 193.594 19.1579 193.078 19.3723C192.561 19.5866 192.113 19.879 191.733 20.2492C191.353 20.6195 191.056 21.0531 190.841 21.5501C190.627 22.0373 190.52 22.5635 190.52 23.1286V23.1579C190.52 23.723 190.627 24.2541 190.841 24.751C191.056 25.2382 191.348 25.667 191.718 26.0373C192.098 26.3978 192.546 26.6852 193.063 26.8996C193.579 27.1042 194.14 27.2066 194.744 27.2066C195.358 27.2066 195.923 27.0994 196.439 26.885C196.956 26.6706 197.404 26.3783 197.784 26.008C198.164 25.6377 198.461 25.209 198.676 24.7218C198.89 24.2248 198.997 23.6938 198.997 23.1286ZM196.805 23.1579C196.805 23.4502 196.756 23.7279 196.659 23.991C196.571 24.2443 196.439 24.4685 196.264 24.6633C196.088 24.8582 195.874 25.0141 195.621 25.1311C195.377 25.2382 195.095 25.2918 194.773 25.2918C194.461 25.2918 194.179 25.2334 193.925 25.1164C193.682 24.9995 193.467 24.8436 193.282 24.6487C193.097 24.4441 192.956 24.2151 192.858 23.9618C192.761 23.6987 192.712 23.421 192.712 23.1286V23.0994C192.712 22.8071 192.756 22.5342 192.844 22.2809C192.941 22.0178 193.078 21.7888 193.253 21.5939C193.428 21.399 193.638 21.248 193.881 21.1408C194.135 21.0239 194.422 20.9654 194.744 20.9654C195.046 20.9654 195.324 21.0239 195.577 21.1408C195.83 21.2578 196.05 21.4185 196.235 21.6232C196.42 21.818 196.561 22.047 196.659 22.3101C196.756 22.5635 196.805 22.8363 196.805 23.1286V23.1579Z"/>
</mask>
<path d="M128.287 22.5732V16.7998H126.036V22.6609C126.036 23.4794 125.841 24.0933 125.451 24.5026C125.062 24.9118 124.521 25.1164 123.829 25.1164C123.137 25.1164 122.596 24.9069 122.207 24.4879C121.817 24.0592 121.622 23.4258 121.622 22.5878V16.7998H119.371V22.6463C119.371 24.1566 119.766 25.2918 120.555 26.0519C121.344 26.8119 122.426 27.1919 123.8 27.1919C124.482 27.1919 125.101 27.0994 125.656 26.9142C126.211 26.7193 126.684 26.4319 127.074 26.0519C127.464 25.6621 127.761 25.1798 127.965 24.6049C128.18 24.03 128.287 23.3527 128.287 22.5732ZM138.692 27.0312V21.9593C138.692 21.0531 138.458 20.3418 137.99 19.8254C137.532 19.3089 136.879 19.0507 136.032 19.0507C135.749 19.0507 135.496 19.0848 135.271 19.153C135.047 19.2212 134.843 19.3138 134.658 19.4307C134.472 19.5477 134.302 19.6841 134.146 19.84C134 19.9861 133.863 20.1421 133.737 20.3077V19.1969H131.515V27.0312H133.737V22.6609C133.737 22.1347 133.859 21.7401 134.102 21.477C134.356 21.2042 134.697 21.0677 135.125 21.0677C135.554 21.0677 135.885 21.2042 136.119 21.477C136.353 21.7401 136.47 22.1347 136.47 22.6609V27.0312H138.692ZM144.173 18.3345V16.3613H141.835V18.3345H144.173ZM144.115 27.0312V19.1969H141.893V27.0312H144.115ZM154.27 25.7742L152.969 24.4587C152.696 24.7121 152.418 24.9167 152.136 25.0726C151.863 25.2188 151.541 25.2918 151.171 25.2918C150.869 25.2918 150.596 25.2382 150.353 25.1311C150.109 25.0141 149.899 24.8582 149.724 24.6633C149.549 24.4685 149.412 24.2395 149.315 23.9764C149.227 23.7133 149.183 23.4307 149.183 23.1286V23.0994C149.183 22.8071 149.227 22.5342 149.315 22.2809C149.412 22.0178 149.544 21.7888 149.709 21.5939C149.885 21.399 150.085 21.248 150.309 21.1408C150.543 21.0239 150.801 20.9654 151.083 20.9654C151.483 20.9654 151.814 21.0434 152.077 21.1993C152.35 21.3552 152.613 21.5647 152.867 21.8278L154.226 20.3662C153.856 19.9569 153.427 19.6354 152.94 19.4015C152.452 19.1676 151.839 19.0507 151.098 19.0507C150.494 19.0507 149.938 19.1579 149.432 19.3723C148.935 19.5866 148.506 19.879 148.145 20.2492C147.785 20.6195 147.502 21.0531 147.298 21.5501C147.093 22.047 146.991 22.5732 146.991 23.1286V23.1579C146.991 23.7133 147.093 24.2395 147.298 24.7364C147.502 25.2236 147.785 25.6524 148.145 26.0226C148.506 26.3832 148.935 26.6706 149.432 26.885C149.938 27.0994 150.484 27.2066 151.069 27.2066C151.848 27.2066 152.482 27.075 152.969 26.8119C153.456 26.5391 153.89 26.1932 154.27 25.7742ZM164.988 23.1286V23.0994C164.988 22.5342 164.88 22.0081 164.666 21.5208C164.452 21.0239 164.154 20.5952 163.774 20.2346C163.404 19.8643 162.961 19.5769 162.444 19.3723C161.928 19.1579 161.368 19.0507 160.764 19.0507C160.15 19.0507 159.584 19.1579 159.068 19.3723C158.552 19.5866 158.103 19.879 157.723 20.2492C157.343 20.6195 157.046 21.0531 156.832 21.5501C156.617 22.0373 156.51 22.5635 156.51 23.1286V23.1579C156.51 23.723 156.617 24.2541 156.832 24.751C157.046 25.2382 157.338 25.667 157.709 26.0373C158.089 26.3978 158.537 26.6852 159.053 26.8996C159.57 27.1042 160.13 27.2066 160.734 27.2066C161.348 27.2066 161.913 27.0994 162.43 26.885C162.946 26.6706 163.394 26.3783 163.774 26.008C164.154 25.6377 164.452 25.209 164.666 24.7218C164.88 24.2248 164.988 23.6938 164.988 23.1286ZM162.795 23.1579C162.795 23.4502 162.746 23.7279 162.649 23.991C162.561 24.2443 162.43 24.4685 162.254 24.6633C162.079 24.8582 161.865 25.0141 161.611 25.1311C161.368 25.2382 161.085 25.2918 160.764 25.2918C160.452 25.2918 160.169 25.2334 159.916 25.1164C159.672 24.9995 159.458 24.8436 159.273 24.6487C159.088 24.4441 158.946 24.2151 158.849 23.9618C158.751 23.6987 158.703 23.421 158.703 23.1286V23.0994C158.703 22.8071 158.746 22.5342 158.834 22.2809C158.932 22.0178 159.068 21.7888 159.243 21.5939C159.419 21.399 159.628 21.248 159.872 21.1408C160.125 21.0239 160.413 20.9654 160.734 20.9654C161.036 20.9654 161.314 21.0239 161.567 21.1408C161.821 21.2578 162.04 21.4185 162.225 21.6232C162.41 21.818 162.552 22.047 162.649 22.3101C162.746 22.5635 162.795 22.8363 162.795 23.1286V23.1579ZM172.487 21.3747V19.0507C171.824 19.0215 171.298 19.1676 170.908 19.4892C170.518 19.8108 170.211 20.2395 169.987 20.7754V19.1969H167.766V27.0312H169.987V24.1372C169.987 23.192 170.197 22.4953 170.616 22.047C171.044 21.5988 171.629 21.3747 172.37 21.3747H172.487ZM182.221 27.0312V21.9593C182.221 21.0531 181.987 20.3418 181.519 19.8254C181.061 19.3089 180.408 19.0507 179.56 19.0507C179.278 19.0507 179.024 19.0848 178.8 19.153C178.576 19.2212 178.372 19.3138 178.186 19.4307C178.001 19.5477 177.831 19.6841 177.675 19.84C177.529 19.9861 177.392 20.1421 177.266 20.3077V19.1969H175.044V27.0312H177.266V22.6609C177.266 22.1347 177.387 21.7401 177.631 21.477C177.884 21.2042 178.225 21.0677 178.654 21.0677C179.083 21.0677 179.414 21.2042 179.648 21.477C179.882 21.7401 179.999 22.1347 179.999 22.6609V27.0312H182.221ZM187.702 18.3345V16.3613H185.364V18.3345H187.702ZM187.644 27.0312V19.1969H185.422V27.0312H187.644ZM198.997 23.1286V23.0994C198.997 22.5342 198.89 22.0081 198.676 21.5208C198.461 21.0239 198.164 20.5952 197.784 20.2346C197.414 19.8643 196.97 19.5769 196.454 19.3723C195.937 19.1579 195.377 19.0507 194.773 19.0507C194.159 19.0507 193.594 19.1579 193.078 19.3723C192.561 19.5866 192.113 19.879 191.733 20.2492C191.353 20.6195 191.056 21.0531 190.841 21.5501C190.627 22.0373 190.52 22.5635 190.52 23.1286V23.1579C190.52 23.723 190.627 24.2541 190.841 24.751C191.056 25.2382 191.348 25.667 191.718 26.0373C192.098 26.3978 192.546 26.6852 193.063 26.8996C193.579 27.1042 194.14 27.2066 194.744 27.2066C195.358 27.2066 195.923 27.0994 196.439 26.885C196.956 26.6706 197.404 26.3783 197.784 26.008C198.164 25.6377 198.461 25.209 198.676 24.7218C198.89 24.2248 198.997 23.6938 198.997 23.1286ZM196.805 23.1579C196.805 23.4502 196.756 23.7279 196.659 23.991C196.571 24.2443 196.439 24.4685 196.264 24.6633C196.088 24.8582 195.874 25.0141 195.621 25.1311C195.377 25.2382 195.095 25.2918 194.773 25.2918C194.461 25.2918 194.179 25.2334 193.925 25.1164C193.682 24.9995 193.467 24.8436 193.282 24.6487C193.097 24.4441 192.956 24.2151 192.858 23.9618C192.761 23.6987 192.712 23.421 192.712 23.1286V23.0994C192.712 22.8071 192.756 22.5342 192.844 22.2809C192.941 22.0178 193.078 21.7888 193.253 21.5939C193.428 21.399 193.638 21.248 193.881 21.1408C194.135 21.0239 194.422 20.9654 194.744 20.9654C195.046 20.9654 195.324 21.0239 195.577 21.1408C195.83 21.2578 196.05 21.4185 196.235 21.6232C196.42 21.818 196.561 22.047 196.659 22.3101C196.756 22.5635 196.805 22.8363 196.805 23.1286V23.1579Z" stroke="#5FE9A5" stroke-width="2.8" mask="url(#path-2-outside-1_244_187)"/>
<path d="M15.4376 30.7537C15.5271 30.351 15.6165 29.9484 15.6613 29.5457C15.706 29.2773 15.7508 29.0536 15.7955 28.7852C16.3324 31.0221 16.4666 33.2143 15.9297 35.4065C15.5718 36.7934 14.8112 38.9409 12.6638 41.2673L12.619 41.3121C12.5296 40.641 12.1269 38.3593 10.561 36.0776C13.2006 34.6012 14.856 32.8117 15.4376 30.7537Z" fill="#5FE9A5"/>
<path d="M4.60953 29.9054C5.05692 30.2633 5.50431 30.5764 5.9517 30.8449C6.84648 31.4265 7.65179 31.9633 8.23339 32.8134C8.54657 33.2608 8.77026 33.7082 8.94922 34.2003C8.72552 34.0213 8.50183 33.7976 8.27813 33.6187C5.32536 31.2028 2.10415 31.0238 1.03041 30.9791C1.03041 30.9791 1.38832 29.1448 1.74624 26.8184C2.5068 27.9368 3.49106 28.9658 4.60953 29.9054Z" fill="#5FE9A5"/>
<path d="M14.273 8.29539C14.0941 8.20592 13.4342 7.66368 13.2553 7.57421C15.0449 5.65043 15.1221 5.7074 19.9102 0.287109C16.6155 6.6408 16.6139 6.74122 15.4955 9.06765C15.227 8.88869 14.4967 8.38487 14.273 8.29539Z" fill="#5FE9A5"/>
<path d="M0.448974 16.6171C0.941103 14.6933 2.14906 12.68 3.71492 11.0694C5.05709 9.72727 6.71244 8.83249 8.63621 8.42983C8.81517 8.3851 8.94939 8.34036 9.12834 8.29562L9.21782 8.25088L9.26256 8.1614C9.35204 7.80349 9.21782 7.49032 9.03887 7.04293C8.85991 6.5508 8.59148 5.92445 8.59148 5.07441C8.59148 4.62702 8.63621 4.17963 8.77043 3.6875C9.03887 4.40332 9.39678 5.02967 9.88891 5.56654C10.56 6.37184 11.3653 6.95345 12.1259 7.44558C12.7075 7.80349 13.3338 8.20614 14.0944 8.56405C14.7207 8.87722 15.526 9.41409 16.2418 10.2194C16.5998 10.6668 16.9129 11.1589 17.0919 11.7405C17.1814 11.9642 17.2708 12.1879 17.3603 12.4116C17.763 13.4406 18.2551 14.1564 18.4341 14.4249C18.4341 14.4696 18.4788 14.4696 18.4788 14.4696C19.0157 15.2749 19.4631 15.6328 19.821 15.946C20.1789 16.2592 20.4026 16.4829 20.6263 16.9302C20.85 17.5119 20.8947 18.2277 20.7157 19.033C20.5368 19.5698 20.2236 19.9278 19.8657 20.1515C19.6868 20.2409 19.4631 20.2857 18.9709 20.4199C18.4788 20.5541 18.2104 20.5988 18.0761 20.5988C17.763 20.5988 17.5393 20.2857 17.2261 19.7488C16.9577 19.3014 16.5998 18.7198 16.0182 18.2724C14.8102 17.3329 12.7969 17.0197 12.0811 17.0197C11.1416 16.975 10.8732 16.7066 10.7389 16.6171L10.2916 16.2144L10.4258 16.8855C10.4258 16.9302 10.6047 17.6461 11.41 18.5856C11.8574 19.1225 12.3496 19.4804 12.7075 19.7041C12.7969 19.7488 12.8864 19.8383 12.9759 19.8383C13.6022 20.1515 14.2286 20.3304 14.9892 20.5094C15.3918 20.5988 15.8839 20.7331 16.4208 20.8673C16.5103 20.8673 16.6445 20.9568 16.8682 21.0462C17.1814 21.1805 17.4945 21.4041 17.763 21.6726C18.3446 22.2989 18.6578 23.149 18.5683 23.999C18.4788 24.8491 18.0314 25.6096 17.3156 26.1465C16.5103 26.7281 15.8839 27.5334 15.5708 28.4282C15.4365 28.7861 15.3471 29.1887 15.3023 29.5466C15.2576 29.9493 15.1681 30.3072 15.0786 30.6651C14.5418 32.6336 12.9759 34.3785 10.381 35.7654C10.2021 35.8548 9.97838 35.9891 9.79943 36.0785C9.75469 35.4969 9.62047 34.9601 9.44152 34.4679C9.21782 33.7968 8.90465 33.1705 8.54674 32.6336C7.92039 31.7389 7.02561 31.1125 6.13083 30.5756C5.68344 30.2625 5.23605 29.994 4.78866 29.6361C3.62545 28.6966 2.68593 27.6229 1.92536 26.5044C1.83588 26.3254 1.74641 26.1912 1.65693 26.057C1.07532 25.0727 0.672671 24.0437 0.359498 22.9253C-0.132632 20.8225 -0.132633 18.6303 0.448974 16.6171ZM19.642 18.7645C19.7315 18.6751 19.7762 18.6303 19.8657 18.4961C19.9104 18.4514 19.9552 18.4066 19.9552 18.3619C20.0894 18.1829 19.9999 18.004 19.7762 18.004C19.642 18.004 19.5078 18.1382 19.5078 18.2277C19.5078 18.3619 19.5078 18.4961 19.4631 18.6751C19.4631 18.7198 19.4631 18.7198 19.4631 18.7645C19.4183 18.8093 19.5525 18.854 19.642 18.7645ZM14.2733 11.7853C14.2733 12.009 14.2733 12.2094 14.5622 12.4279L15.2576 12.9037C15.4365 13.038 15.705 12.8143 15.5708 12.5906L14.676 11.2931C14.5418 11.1142 14.2286 11.2037 14.2286 11.4273V11.7853H14.2733Z" fill="#5FE9A5"/>
</svg>
