<svg width="180" height="73" viewBox="0 0 180 73" fill="none" xmlns="http://www.w3.org/2000/svg">
<path d="M41.0927 48.292C41.1992 47.8124 41.3058 47.3328 41.3591 46.8532C41.4124 46.5335 41.4657 46.267 41.519 45.9473C42.1585 48.6118 42.3183 51.223 41.6788 53.8342C41.2525 55.4862 40.3466 58.0441 37.7887 60.8152L37.7354 60.8685C37.6288 60.0691 37.1492 57.3513 35.284 54.6335C38.4282 52.875 40.3999 50.7434 41.0927 48.292Z" fill="#5FE9A5"/>
<path d="M28.1941 47.2825C28.727 47.7088 29.2599 48.0818 29.7928 48.4016C30.8586 49.0943 31.8179 49.7338 32.5106 50.7463C32.8837 51.2792 33.1501 51.8121 33.3633 52.3983C33.0968 52.1852 32.8304 51.9187 32.5639 51.7056C29.0468 48.8279 25.2099 48.6147 23.9309 48.5614C23.9309 48.5614 24.3573 46.3766 24.7836 43.6055C25.6895 44.9377 26.8619 46.1634 28.1941 47.2825Z" fill="#5FE9A5"/>
<path d="M39.7015 21.5409C39.4883 21.4343 38.7024 20.7884 38.4892 20.6818C40.6208 18.3904 40.7128 18.4582 46.416 12.002C42.4917 19.57 42.4898 19.6897 41.1575 22.4607C40.8378 22.2476 39.9679 21.6475 39.7015 21.5409Z" fill="#5FE9A5"/>
<path d="M23.2378 31.4536C23.824 29.1621 25.2629 26.764 27.128 24.8456C28.7267 23.2469 30.6984 22.1811 32.9899 21.7015C33.2031 21.6482 33.3629 21.5949 33.5761 21.5416L33.6827 21.4883L33.736 21.3817C33.8426 20.9554 33.6827 20.5824 33.4695 20.0495C33.2564 19.4633 32.9366 18.7172 32.9366 17.7047C32.9366 17.1718 32.9899 16.6389 33.1498 16.0527C33.4695 16.9054 33.8958 17.6514 34.482 18.2909C35.2814 19.2501 36.2406 19.9429 37.1465 20.5291C37.8393 20.9554 38.5854 21.435 39.4913 21.8614C40.2374 22.2344 41.1966 22.8739 42.0492 23.8331C42.4755 24.366 42.8486 24.9522 43.0617 25.6449C43.1683 25.9114 43.2749 26.1778 43.3815 26.4443C43.8611 27.67 44.4473 28.5226 44.6604 28.8424C44.6604 28.8956 44.7137 28.8956 44.7137 28.8956C45.3532 29.8549 45.8861 30.2812 46.3124 30.6542C46.7388 31.0272 47.0052 31.2937 47.2717 31.8266C47.5381 32.5194 47.5914 33.372 47.3782 34.3312C47.1651 34.9707 46.792 35.397 46.3657 35.6635C46.1526 35.7701 45.8861 35.8234 45.2999 35.9832C44.7137 36.1431 44.394 36.1964 44.2341 36.1964C43.8611 36.1964 43.5946 35.8233 43.2216 35.1839C42.9019 34.651 42.4755 33.9582 41.7828 33.4253C40.3439 32.3062 37.9459 31.9332 37.0933 31.9332C35.9742 31.8799 35.6544 31.5601 35.4946 31.4536L34.9616 30.974L35.1215 31.7733C35.1215 31.8266 35.3347 32.6792 36.2939 33.7983C36.8268 34.4378 37.413 34.8641 37.8393 35.1306C37.9459 35.1839 38.0525 35.2905 38.1591 35.2905C38.9051 35.6635 39.6512 35.8766 40.5571 36.0898C41.0367 36.1964 41.6229 36.3563 42.2624 36.5161C42.369 36.5161 42.5288 36.6227 42.7953 36.7293C43.1683 36.8892 43.5414 37.1556 43.8611 37.4753C44.5539 38.2214 44.9269 39.2339 44.8203 40.2464C44.7137 41.2589 44.1808 42.1649 43.3282 42.8043C42.369 43.4971 41.6229 44.4563 41.2499 45.5221C41.09 45.9485 40.9834 46.4281 40.9301 46.8544C40.8768 47.334 40.7703 47.7603 40.6637 48.1866C40.0242 50.5314 38.1591 52.6097 35.0682 54.2617C34.8551 54.3683 34.5886 54.5282 34.3755 54.6347C34.3222 53.942 34.1623 53.3025 33.9491 52.7163C33.6827 51.9169 33.3097 51.1709 32.8833 50.5314C32.1373 49.4656 31.0715 48.7195 30.0057 48.0801C29.4728 47.707 28.9399 47.3873 28.407 46.961C27.0214 45.8419 25.9023 44.5629 24.9964 43.2307C24.8898 43.0175 24.7832 42.8576 24.6767 42.6978C23.9839 41.5254 23.5043 40.2997 23.1313 38.9675C22.5451 36.4628 22.5451 33.8516 23.2378 31.4536ZM46.0993 34.0115C46.2059 33.9049 46.2591 33.8516 46.3657 33.6917C46.419 33.6385 46.4723 33.5852 46.4723 33.5319C46.6322 33.3187 46.5256 33.1056 46.2591 33.1056C46.0993 33.1056 45.9394 33.2654 45.9394 33.372C45.9394 33.5319 45.9394 33.6917 45.8861 33.9049C45.8861 33.9582 45.8861 33.9582 45.8861 34.0115C45.8328 34.0648 45.9927 34.1181 46.0993 34.0115ZM39.7045 25.6982C39.7045 25.9647 39.7045 26.2034 40.0485 26.4637L40.8768 27.0305C41.09 27.1904 41.4097 26.9239 41.2499 26.6575L40.1841 25.112C40.0242 24.8989 39.6512 25.0055 39.6512 25.2719V25.6982H39.7045Z" fill="#5FE9A5"/>
<path d="M59.4922 45.5049C57.6967 45.5049 56.3108 44.9732 55.3346 43.9098C54.3759 42.829 53.8965 41.3473 53.8965 39.4646V28.8745H57.3235V29.1099C57.2364 29.2145 56.9123 29.3278 56.8774 29.4498C56.86 29.5718 56.8512 29.781 56.8512 30.0773V39.4907C56.8512 40.6064 57.043 41.4867 57.4265 42.1317C57.8274 42.7767 58.5247 43.0992 59.5184 43.0992C60.5294 43.0992 61.2354 42.7767 61.6364 42.1317C62.0373 41.4693 62.2378 40.5628 62.2378 39.4123V28.8745H65.1141V39.3862C65.1141 40.7807 64.8788 41.9313 64.4081 42.8377C63.9374 43.7442 63.275 44.4153 62.4208 44.8512C61.5841 45.287 60.6079 45.5049 59.4922 45.5049Z" fill="#5FE9A5"/>
<path d="M67.4675 45.4747V33.3157H70.4222V34.9892C70.7186 34.6057 71.0411 34.2657 71.3897 33.9694C71.7384 33.673 72.1219 33.4464 72.5402 33.2895C72.976 33.1152 73.438 33.0281 73.9261 33.0281C74.6408 33.0281 75.2945 33.2024 75.8872 33.551C76.4799 33.8822 76.9593 34.4226 77.3254 35.1722C77.6915 35.9218 77.8745 36.9067 77.8745 38.127V45.4747H74.9197V38.1793C74.9197 37.4994 74.85 36.9503 74.7105 36.5319C74.5711 36.1136 74.3619 35.8085 74.083 35.6167C73.8215 35.4076 73.5077 35.303 73.1417 35.303C72.8104 35.303 72.4792 35.3727 72.148 35.5121C71.8342 35.6342 71.5466 35.8259 71.2851 36.0874C71.0236 36.3489 70.8144 36.6627 70.6576 37.0287C70.5007 37.3774 70.4222 37.7783 70.4222 38.2316V45.4747H67.4675Z" fill="#5FE9A5"/>
<path d="M81.2999 45.4747V43.1475H84.2808V35.6429H81.4568V33.3157H87.2617V43.1475H89.9812V45.4747H81.2999ZM85.6405 31.3023C85.135 31.3023 84.6992 31.1279 84.3331 30.7793C83.9671 30.4307 83.784 30.0123 83.784 29.5242C83.784 29.0012 83.9583 28.5741 84.307 28.2429C84.6556 27.9117 85.1002 27.7461 85.6405 27.7461C86.1287 27.7461 86.5557 27.9204 86.9218 28.2691C87.3053 28.6177 87.4971 29.0361 87.4971 29.5242C87.4971 30.0123 87.3053 30.4307 86.9218 30.7793C86.5557 31.1279 86.1287 31.3023 85.6405 31.3023Z" fill="#5FE9A5"/>
<path d="M93.4609 27.3652H97.1309V27.6033C97.025 27.7091 96.5385 27.8238 96.5032 27.9472C96.4856 28.0707 96.4768 28.2823 96.4768 28.5821V35.3281H101.556V27.3652H105.157V27.6033C105.051 27.7091 104.642 27.8238 104.625 27.9472C104.607 28.0707 104.598 29.5521 104.598 29.852V45.1162H101.556V37.709H96.4768V45.1162H93.4609V27.3652ZM113.196 45.1162V41.201H106.741V39.2433L113.884 28.6351H116.106V38.7936H118.275V41.2274H116.106V45.1162H113.196ZM109.757 38.8465H113.275V33.344L109.757 38.8465ZM126.265 45.4337C125.365 45.4337 124.527 45.275 123.751 44.9575C122.993 44.6401 122.323 44.1991 121.741 43.6348C121.177 43.0704 120.736 42.4003 120.418 41.6243C120.101 40.8483 119.942 39.9929 119.942 39.0582C119.942 38.1587 120.101 37.3122 120.418 36.5185C120.736 35.7249 121.177 35.0371 121.741 34.4551C122.323 33.8554 122.993 33.3881 123.751 33.053C124.527 32.7002 125.374 32.5239 126.291 32.5239C127.42 32.5239 128.407 32.7355 129.254 33.1588C130.101 33.5821 130.771 34.1641 131.265 34.9048L129.598 36.7302L129.439 36.9153L129.228 36.7566C129.228 36.6155 129.21 36.4744 129.175 36.3333C129.139 36.1746 129.025 35.9894 128.831 35.7778C128.496 35.4427 128.125 35.2222 127.72 35.1164C127.314 34.993 126.847 34.9312 126.318 34.9312C125.877 34.9312 125.453 35.0282 125.048 35.2222C124.66 35.3986 124.307 35.6632 123.99 36.0159C123.672 36.351 123.425 36.7743 123.249 37.2857C123.072 37.7972 122.984 38.388 122.984 39.0582C122.984 39.6578 123.072 40.2045 123.249 40.6984C123.443 41.1745 123.69 41.589 123.99 41.9417C124.307 42.2768 124.669 42.5414 125.074 42.7354C125.497 42.9117 125.938 42.9999 126.397 42.9999C126.767 42.9999 127.129 42.947 127.482 42.8412C127.834 42.7354 128.178 42.5766 128.513 42.365C128.866 42.1357 129.192 41.8359 129.492 41.4655L131.159 43.3702C130.506 44.0933 129.748 44.6224 128.884 44.9575C128.019 45.275 127.146 45.4337 126.265 45.4337ZM137.534 39.5343L136.555 40.5132V45.1162H133.513V27.3652H137.111V27.6033C137.023 27.7091 136.617 27.8238 136.582 27.9472C136.564 28.0707 136.555 28.2823 136.555 28.5821V37.2593L141.264 32.7091C141.405 32.7267 141.555 32.7532 141.714 32.7884C141.873 32.8061 142.032 32.8237 142.19 32.8413C142.349 32.859 142.508 32.8766 142.666 32.8942C142.825 32.8942 142.957 32.8942 143.063 32.8942H144.492L139.598 37.6825L145.153 45.0898L141.741 45.2221L137.534 39.5343ZM152.217 45.4072C151.476 45.4072 150.762 45.3367 150.074 45.1956C149.386 45.0721 148.751 44.8693 148.169 44.5871C147.587 44.2873 147.049 43.9081 146.555 43.4496L147.878 41.0158L147.984 40.8042L148.195 40.9364C148.248 41.0599 148.301 41.201 148.354 41.3597C148.407 41.5008 148.539 41.6684 148.751 41.8624C149.192 42.2327 149.695 42.5237 150.259 42.7354C150.823 42.947 151.494 43.0528 152.27 43.0528C152.763 43.0528 153.178 42.9999 153.513 42.8941C153.866 42.7706 154.13 42.6119 154.307 42.4179C154.501 42.2063 154.598 41.9682 154.598 41.7036C154.598 41.492 154.545 41.3068 154.439 41.1481C154.333 40.9894 154.165 40.8483 153.936 40.7248C153.707 40.6014 153.407 40.4779 153.037 40.3544C152.666 40.2134 152.225 40.0634 151.714 39.9047C150.815 39.6754 150.03 39.3933 149.36 39.0582C148.707 38.7054 148.204 38.2822 147.852 37.7883C147.499 37.2945 147.322 36.7213 147.322 36.0688C147.322 35.381 147.516 34.7725 147.904 34.2434C148.31 33.7143 148.875 33.2999 149.598 33.0001C150.321 32.6826 151.176 32.5239 152.164 32.5239C152.675 32.5239 153.16 32.568 153.619 32.6562C154.077 32.7267 154.509 32.8413 154.915 33.0001C155.338 33.1412 155.726 33.3352 156.079 33.5821C156.449 33.8113 156.793 34.0847 157.111 34.4022L155.656 36.4392L155.471 36.6508L155.285 36.4921C155.268 36.351 155.224 36.2187 155.153 36.0953C155.1 35.9542 154.968 35.7866 154.756 35.5926C154.404 35.3281 153.998 35.1341 153.539 35.0106C153.098 34.8872 152.658 34.8254 152.217 34.8254C151.617 34.8254 151.097 34.9224 150.656 35.1164C150.233 35.3104 150.021 35.6103 150.021 36.0159C150.021 36.2452 150.118 36.4568 150.312 36.6508C150.506 36.8272 150.823 37.0035 151.264 37.1799C151.723 37.3386 152.322 37.515 153.063 37.709C154.051 37.9735 154.853 38.2822 155.471 38.6349C156.105 38.97 156.564 39.3756 156.846 39.8518C157.146 40.328 157.296 40.8835 157.296 41.5184C157.296 42.2063 157.102 42.85 156.714 43.4496C156.326 44.0492 155.753 44.5254 154.994 44.8781C154.254 45.2309 153.328 45.4072 152.217 45.4072Z" stroke="#5FE9A5" stroke-width="0.705456"/>
</svg>
