<svg width="283" height="52" viewBox="0 0 283 52" fill="none" xmlns="http://www.w3.org/2000/svg">
<path d="M63.216 27.6413C63.6724 27.4955 63.6741 27.432 63.2538 26.1573C62.8351 24.8825 63.0273 23.7004 63.8028 22.7705C64.8614 21.506 65.3709 20.4269 65.5339 19.1075C65.6712 17.9752 65.7175 17.8842 66.179 17.7967C66.4878 17.7367 66.9167 17.8551 67.9341 18.2789C69.4165 18.8965 69.7699 19.171 70.1182 19.9602C70.3035 20.3754 70.3241 20.6242 70.2211 21.1046C70.0925 21.6913 69.5726 22.635 69.3736 22.6367C69.3221 22.6367 69.0373 22.8323 68.7422 23.069C68.2498 23.4636 68.2155 23.5323 68.3562 23.8548C68.6582 24.5548 69.377 25.4024 69.667 25.4024C69.83 25.4024 70.4939 24.9357 71.2283 24.3095C72.6626 23.0793 72.7243 22.9541 72.8753 20.9382C73.0469 18.5311 72.4567 17.4073 69.8214 15.1477L68.1675 13.7289L68.0611 12.871C67.953 11.9823 68.1057 9.87202 68.3648 8.70707C68.5192 8.0208 69.0202 7.3637 69.4971 7.23159C70.017 7.08747 70.3207 7.386 70.7187 8.42227C71.1476 9.54433 71.5525 9.9355 72.2971 9.9355C72.7604 9.9355 73.1893 9.63869 73.4878 9.11712C73.7023 8.74482 73.8275 6.49899 73.6988 5.31689C73.6371 4.75072 73.6336 4.17425 73.6903 4.03871C73.7829 3.8191 74.5824 3.34386 76.4697 2.38823C76.7775 2.23564 77.0745 2.06194 77.3584 1.86838C77.624 1.69034 77.9054 1.537 78.1991 1.41029C78.9162 1.09289 80.7846 0 80.6096 0C80.2785 0 78.8768 0.432351 78.1287 0.763477C77.6723 0.965928 77.2366 1.13235 77.1594 1.13235C77.0822 1.13235 76.202 1.41544 75.2035 1.76029C74.2084 2.10685 73.2974 2.38994 73.179 2.38994C72.9045 2.38994 72.8616 2.14975 72.9491 1.11004C72.9903 0.638233 72.9885 0.252205 72.9456 0.252205C72.9028 0.252205 72.7192 0.343136 72.5373 0.454655C71.9814 0.79436 70.7873 1.00367 69.3805 1.00367C68.0371 1.0071 66.2819 1.27303 65.6128 1.57843C64.6521 2.01421 63.5351 3.37989 62.1197 5.85047C61.1349 7.56958 60.078 8.29703 58.5631 8.29874C57.9506 8.29874 56.3156 8.04654 54.1023 7.61247C52.2786 7.25218 49.8698 7.16811 48.9347 7.43576C47.7938 7.76174 46.284 8.63673 45.0401 9.69016C43.8735 10.6784 43.6916 10.898 42.9744 12.2088C42.1166 13.7735 41.173 15.9953 40.3323 18.423C40.2122 18.7695 39.9617 19.3494 39.773 19.7149C39.2686 20.6894 39.2926 20.7494 40.2105 20.7494C41.2056 20.7494 41.674 20.5916 42.3259 20.0374C42.9521 19.5056 43.1151 19.1796 44.0965 16.5203C44.5975 15.1546 45.0864 14.3362 45.4004 14.3362C45.6132 14.3362 46.0455 15.798 46.0455 16.5203C46.0455 17.035 45.7247 17.7247 44.896 19.0029C43.544 21.0788 42.8338 24.0161 43.1186 26.346L43.2387 27.3514L44.1411 27.3891C45.5565 27.4474 45.5428 27.468 45.5428 25.4418C45.5428 23.2852 45.6886 22.8185 46.6408 21.9504C47.0354 21.5901 47.9242 20.5607 48.6122 19.6686C49.3019 18.7764 49.9607 18.0455 50.0774 18.0455C50.3484 18.0455 50.4823 18.7798 50.496 20.3308C50.5063 21.3516 50.5474 21.5249 50.8477 21.8406C51.6644 22.6933 52.2374 24.2477 52.5908 26.5656C52.6697 27.0803 52.7367 27.1747 53.0695 27.2484C53.5585 27.3582 54.9139 27.3771 55.0305 27.2742C55.1317 27.1884 54.955 25.7935 54.5536 23.5168C54.4026 22.6521 54.2362 21.4923 54.1864 20.9382C54.0955 19.9534 54.2979 18.1073 54.5364 17.735C54.6359 17.5806 55.142 17.5463 57.508 17.536C59.0778 17.5308 60.7986 17.4793 61.3339 17.4227L62.3033 17.3198V17.7487C62.3033 18.2119 62.1832 18.6168 61.394 20.8747C61.116 21.6707 60.7129 22.882 60.4967 23.5683L60.1072 24.8173L60.4366 25.833C60.5974 26.3433 60.797 26.8406 61.0337 27.3205C61.2945 27.7769 61.3253 27.7906 62.0545 27.7837C62.4459 27.781 62.8356 27.7332 63.216 27.6413Z" fill="#656074"/>
<g filter="url(#filter0_d_217_44)">
<path d="M12.4498 50H1.00069L13.1851 45.6933L28.1589 41.3864C31.2224 40.5053 30.8369 36.0473 27.6676 35.7051V35.7051C24.3475 35.3467 24.1548 30.5878 27.435 29.9621L39.1304 27.7312H73.6895L54.9938 31.0959C52.4825 31.5479 52.5617 35.176 55.0904 35.518V35.518C57.5908 35.856 57.7085 39.4288 55.2357 39.9306L26.8405 45.6933L12.4498 50Z" fill="#D9D9D9"/>
</g>
<path d="M110.772 33.0267V19.2524H107.742V24.7031H102.153V19.2524H99.123V33.0267H102.153V27.4973H107.742V33.0267H110.772Z" fill="#656074"/>
<path d="M122.436 33.0267V26.907C122.436 25.4771 122.062 24.362 121.315 23.5618C120.567 22.7616 119.373 22.3615 117.733 22.3615C116.841 22.3615 116.08 22.4402 115.451 22.5976C114.821 22.755 114.218 22.9584 113.64 23.2076L114.388 25.4902C114.874 25.3066 115.333 25.1688 115.766 25.077C116.212 24.972 116.723 24.9196 117.3 24.9196C118.048 24.9196 118.612 25.0835 118.993 25.4115C119.373 25.7395 119.563 26.2183 119.563 26.848V27.0251C119.183 26.8939 118.789 26.7889 118.383 26.7102C117.989 26.6315 117.523 26.5921 116.986 26.5921C116.356 26.5921 115.779 26.6643 115.254 26.8086C114.742 26.9398 114.296 27.1431 113.916 27.4186C113.549 27.6941 113.26 28.0417 113.05 28.4615C112.84 28.8813 112.735 29.3798 112.735 29.957V29.9964C112.735 30.5211 112.827 30.9868 113.011 31.3935C113.208 31.787 113.47 32.1215 113.798 32.397C114.126 32.6725 114.506 32.8824 114.939 33.0267C115.385 33.1579 115.857 33.2235 116.356 33.2235C117.091 33.2235 117.714 33.1054 118.225 32.8693C118.737 32.62 119.176 32.2921 119.544 31.8854V33.0267H122.436ZM119.603 29.3076C119.603 29.8586 119.386 30.3046 118.953 30.6457C118.534 30.9868 117.969 31.1573 117.261 31.1573C116.776 31.1573 116.382 31.0458 116.08 30.8228C115.779 30.5998 115.628 30.285 115.628 29.8783V29.8389C115.628 29.3667 115.812 29.0059 116.179 28.7567C116.546 28.5074 117.051 28.3828 117.694 28.3828C118.061 28.3828 118.402 28.4222 118.717 28.5009C119.045 28.5665 119.34 28.6583 119.603 28.7764V29.3076Z" fill="#656074"/>
<path d="M133.904 31.3344L132.153 29.5635C131.786 29.9045 131.412 30.18 131.031 30.3899C130.664 30.5867 130.231 30.6851 129.733 30.6851C129.326 30.6851 128.959 30.6129 128.631 30.4686C128.303 30.3112 128.021 30.1013 127.785 29.8389C127.548 29.5766 127.365 29.2683 127.234 28.9141C127.116 28.5599 127.057 28.1795 127.057 27.7728V27.7334C127.057 27.3399 127.116 26.9726 127.234 26.6315C127.365 26.2773 127.542 25.969 127.765 25.7067C128.001 25.4443 128.27 25.241 128.572 25.0967C128.887 24.9392 129.234 24.8605 129.615 24.8605C130.152 24.8605 130.598 24.9655 130.953 25.1754C131.32 25.3853 131.674 25.6673 132.015 26.0215L133.845 24.0537C133.347 23.5028 132.77 23.0699 132.114 22.755C131.458 22.4402 130.631 22.2828 129.634 22.2828C128.821 22.2828 128.073 22.4271 127.391 22.7157C126.722 23.0043 126.145 23.3978 125.659 23.8963C125.174 24.3948 124.794 24.9786 124.518 25.6476C124.243 26.3167 124.105 27.0251 124.105 27.7728V27.8122C124.105 28.5599 124.243 29.2683 124.518 29.9373C124.794 30.5932 125.174 31.1705 125.659 31.6689C126.145 32.1543 126.722 32.5413 127.391 32.8299C128.073 33.1185 128.808 33.2628 129.595 33.2628C130.644 33.2628 131.497 33.0857 132.153 32.7315C132.809 32.3642 133.393 31.8985 133.904 31.3344Z" fill="#656074"/>
<path d="M145.677 33.0267L141.525 26.6315L145.539 22.4795H141.958L138.455 26.3167V18.6621H135.465V33.0267H138.455V29.8193L139.498 28.7173L142.253 33.0267H145.677Z" fill="#656074"/>
<path d="M154.449 29.8193V29.7799C154.449 29.2945 154.351 28.8813 154.154 28.5402C153.957 28.1991 153.708 27.9105 153.406 27.6744C153.105 27.4383 152.764 27.2415 152.383 27.0841C152.003 26.9135 151.629 26.7692 151.262 26.6512C150.973 26.5594 150.697 26.4675 150.435 26.3757C150.186 26.2839 149.963 26.192 149.766 26.1002C149.569 25.9953 149.412 25.8903 149.294 25.7854C149.176 25.6673 149.117 25.5361 149.117 25.3918V25.3525C149.117 25.1426 149.209 24.972 149.392 24.8409C149.576 24.6965 149.851 24.6244 150.219 24.6244C150.599 24.6244 151.039 24.7162 151.537 24.8999C152.036 25.0704 152.547 25.3066 153.072 25.6083L154.213 23.5421C153.636 23.1617 153 22.8665 152.304 22.6566C151.622 22.4336 150.947 22.3221 150.278 22.3221C149.74 22.3221 149.235 22.3943 148.763 22.5386C148.303 22.6829 147.897 22.8993 147.543 23.1879C147.201 23.4765 146.926 23.8307 146.716 24.2505C146.519 24.6572 146.421 25.1295 146.421 25.6673V25.7067C146.421 26.2183 146.513 26.6512 146.696 27.0054C146.893 27.3596 147.142 27.6613 147.444 27.9105C147.746 28.1467 148.08 28.3434 148.448 28.5009C148.828 28.6452 149.202 28.7698 149.569 28.8747C149.858 28.9666 150.133 29.0518 150.396 29.1305C150.658 29.2093 150.888 29.2945 151.084 29.3864C151.294 29.4651 151.458 29.5635 151.576 29.6815C151.694 29.7996 151.753 29.9373 151.753 30.0947V30.1341C151.753 30.3702 151.649 30.5604 151.439 30.7048C151.242 30.8491 150.927 30.9212 150.494 30.9212C149.996 30.9212 149.458 30.8163 148.881 30.6064C148.316 30.3965 147.746 30.0816 147.169 29.6618L145.89 31.6296C146.598 32.1806 147.339 32.5872 148.113 32.8496C148.9 33.0988 149.668 33.2235 150.415 33.2235C150.98 33.2235 151.504 33.1579 151.99 33.0267C152.488 32.8824 152.921 32.6725 153.288 32.397C153.656 32.1215 153.938 31.7739 154.134 31.3541C154.344 30.9212 154.449 30.4096 154.449 29.8193Z" fill="#656074"/>
<path d="M172.312 33.0267V18.6621H169.321V23.857C168.967 23.4372 168.527 23.0699 168.002 22.755C167.491 22.4402 166.835 22.2828 166.035 22.2828C165.405 22.2828 164.801 22.4008 164.224 22.637C163.647 22.8731 163.135 23.2273 162.689 23.6996C162.257 24.1587 161.902 24.7293 161.627 25.4115C161.364 26.0805 161.233 26.8545 161.233 27.7334V27.7728C161.233 28.6517 161.364 29.4323 161.627 30.1144C161.902 30.7835 162.263 31.3541 162.709 31.8264C163.155 32.2855 163.667 32.6331 164.244 32.8693C164.821 33.1054 165.418 33.2235 166.035 33.2235C166.822 33.2235 167.471 33.0661 167.983 32.7512C168.507 32.4233 168.953 32.01 169.321 31.5115V33.0267H172.312ZM169.36 27.7728C169.36 28.2057 169.288 28.6058 169.144 28.9731C169.012 29.3273 168.829 29.6356 168.593 29.898C168.37 30.1472 168.101 30.344 167.786 30.4883C167.484 30.6195 167.156 30.6851 166.802 30.6851C166.448 30.6851 166.113 30.6195 165.798 30.4883C165.497 30.344 165.228 30.1472 164.992 29.898C164.756 29.6356 164.565 29.3273 164.421 28.9731C164.29 28.6058 164.224 28.2057 164.224 27.7728V27.7334C164.224 27.2874 164.29 26.8873 164.421 26.5331C164.565 26.1789 164.756 25.8772 164.992 25.628C165.228 25.3656 165.497 25.1688 165.798 25.0376C166.113 24.8933 166.448 24.8212 166.802 24.8212C167.156 24.8212 167.484 24.8933 167.786 25.0376C168.101 25.1688 168.37 25.3656 168.593 25.628C168.829 25.8772 169.012 26.1855 169.144 26.5528C169.288 26.907 169.36 27.3005 169.36 27.7334V27.7728Z" fill="#656074"/>
<path d="M184.429 28.0483V28.0089C184.429 27.2612 184.324 26.5462 184.114 25.8641C183.918 25.1688 183.603 24.5588 183.17 24.0341C182.75 23.4962 182.219 23.0699 181.576 22.755C180.933 22.4402 180.172 22.2828 179.293 22.2828C178.519 22.2828 177.811 22.4271 177.168 22.7157C176.539 23.0043 175.994 23.3978 175.535 23.8963C175.076 24.3948 174.715 24.9786 174.453 25.6476C174.203 26.3167 174.079 27.0251 174.079 27.7728V27.8122C174.079 28.6255 174.217 29.3667 174.492 30.0357C174.768 30.6916 175.148 31.2623 175.633 31.7477C176.132 32.233 176.716 32.6069 177.385 32.8693C178.067 33.1316 178.801 33.2628 179.589 33.2628C180.546 33.2628 181.379 33.0923 182.088 32.7512C182.796 32.397 183.399 31.9116 183.898 31.2951L182.186 29.7799C181.766 30.1603 181.36 30.4358 180.966 30.6064C180.572 30.7769 180.126 30.8622 179.628 30.8622C178.959 30.8622 178.395 30.6916 177.936 30.3506C177.49 29.9964 177.194 29.4782 177.05 28.796H184.39C184.403 28.6517 184.41 28.5271 184.41 28.4222C184.423 28.3172 184.429 28.1926 184.429 28.0483ZM181.517 26.9267H177.011C177.129 26.2445 177.378 25.7001 177.759 25.2934C178.152 24.8868 178.664 24.6834 179.293 24.6834C179.923 24.6834 180.428 24.8933 180.809 25.3131C181.189 25.7198 181.425 26.2576 181.517 26.9267Z" fill="#656074"/>
<path d="M203.035 27.0251V19.2524H200.004V27.1431C200.004 28.2451 199.742 29.0715 199.217 29.6225C198.692 30.1735 197.964 30.4489 197.033 30.4489C196.101 30.4489 195.373 30.1669 194.849 29.6028C194.324 29.0256 194.062 28.1729 194.062 27.0447V19.2524H191.031V27.1234C191.031 29.1568 191.563 30.6851 192.625 31.7083C193.688 32.7315 195.144 33.2432 196.994 33.2432C197.912 33.2432 198.745 33.1185 199.493 32.8693C200.24 32.6069 200.877 32.2199 201.401 31.7083C201.926 31.1836 202.326 30.5342 202.602 29.7602C202.89 28.9862 203.035 28.0745 203.035 27.0251Z" stroke="#656074"/>
<path d="M215.074 33.0267V26.1986C215.074 24.9786 214.76 24.021 214.13 23.3257C213.513 22.6304 212.634 22.2828 211.493 22.2828C211.113 22.2828 210.772 22.3287 210.47 22.4205C210.168 22.5123 209.893 22.637 209.643 22.7944C209.394 22.9518 209.165 23.1355 208.955 23.3454C208.758 23.5421 208.574 23.752 208.404 23.975V22.4795H205.413V33.0267H208.404V27.1431C208.404 26.4347 208.568 25.9034 208.896 25.5492C209.237 25.1819 209.696 24.9983 210.273 24.9983C210.85 24.9983 211.296 25.1819 211.611 25.5492C211.926 25.9034 212.083 26.4347 212.083 27.1431V33.0267H215.074Z" stroke="#656074"/>
<path d="M220.487 21.3186V18.6621H217.338V21.3186H220.487ZM220.408 33.0267V22.4795H217.417V33.0267H220.408Z" stroke="#656074"/>
<path d="M232.111 31.3344L230.36 29.5635C229.993 29.9045 229.619 30.18 229.238 30.3899C228.871 30.5867 228.438 30.6851 227.94 30.6851C227.533 30.6851 227.166 30.6129 226.838 30.4686C226.51 30.3112 226.228 30.1013 225.992 29.8389C225.755 29.5766 225.572 29.2683 225.441 28.9141C225.323 28.5599 225.264 28.1795 225.264 27.7728V27.7334C225.264 27.3399 225.323 26.9726 225.441 26.6315C225.572 26.2773 225.749 25.969 225.972 25.7067C226.208 25.4443 226.477 25.241 226.779 25.0967C227.094 24.9392 227.441 24.8605 227.822 24.8605C228.359 24.8605 228.805 24.9655 229.16 25.1754C229.527 25.3853 229.881 25.6673 230.222 26.0215L232.052 24.0537C231.554 23.5028 230.977 23.0699 230.321 22.755C229.665 22.4402 228.838 22.2828 227.841 22.2828C227.028 22.2828 226.28 22.4271 225.598 22.7157C224.929 23.0043 224.352 23.3978 223.866 23.8963C223.381 24.3948 223.001 24.9786 222.725 25.6476C222.45 26.3167 222.312 27.0251 222.312 27.7728V27.8122C222.312 28.5599 222.45 29.2683 222.725 29.9373C223.001 30.5932 223.381 31.1705 223.866 31.6689C224.352 32.1543 224.929 32.5413 225.598 32.8299C226.28 33.1185 227.015 33.2628 227.802 33.2628C228.851 33.2628 229.704 33.0857 230.36 32.7315C231.016 32.3642 231.6 31.8985 232.111 31.3344Z" stroke="#656074"/>
<path d="M244.573 27.7728V27.7334C244.573 26.9726 244.429 26.2642 244.14 25.6083C243.851 24.9392 243.451 24.362 242.94 23.8767C242.441 23.3782 241.844 22.9912 241.149 22.7157C240.454 22.4271 239.699 22.2828 238.886 22.2828C238.06 22.2828 237.299 22.4271 236.603 22.7157C235.908 23.0043 235.305 23.3978 234.793 23.8963C234.282 24.3948 233.881 24.9786 233.593 25.6476C233.304 26.3035 233.16 27.0119 233.16 27.7728V27.8122C233.16 28.573 233.304 29.288 233.593 29.957C233.881 30.6129 234.275 31.1901 234.773 31.6886C235.285 32.174 235.889 32.561 236.584 32.8496C237.279 33.1251 238.033 33.2628 238.847 33.2628C239.673 33.2628 240.434 33.1185 241.129 32.8299C241.825 32.5413 242.428 32.1478 242.94 31.6493C243.451 31.1508 243.851 30.5736 244.14 29.9177C244.429 29.2486 244.573 28.5337 244.573 27.7728ZM241.621 27.8122C241.621 28.2057 241.556 28.5796 241.424 28.9338C241.306 29.2749 241.129 29.5766 240.893 29.8389C240.657 30.1013 240.368 30.3112 240.027 30.4686C239.699 30.6129 239.319 30.6851 238.886 30.6851C238.466 30.6851 238.086 30.6064 237.745 30.4489C237.417 30.2915 237.128 30.0816 236.879 29.8193C236.63 29.5438 236.439 29.2355 236.308 28.8944C236.177 28.5402 236.112 28.1664 236.112 27.7728V27.7334C236.112 27.3399 236.171 26.9726 236.289 26.6315C236.42 26.2773 236.603 25.969 236.84 25.7067C237.076 25.4443 237.358 25.241 237.686 25.0967C238.027 24.9392 238.414 24.8605 238.847 24.8605C239.253 24.8605 239.627 24.9392 239.968 25.0967C240.309 25.2541 240.605 25.4705 240.854 25.746C241.103 26.0084 241.293 26.3167 241.424 26.6709C241.556 27.0119 241.621 27.3793 241.621 27.7728V27.8122Z" stroke="#656074"/>
<path d="M252.701 25.4115V22.2828C251.809 22.2434 251.1 22.4402 250.576 22.8731C250.051 23.306 249.638 23.8832 249.336 24.6047V22.4795H246.345V33.0267H249.336V29.1305C249.336 27.8581 249.618 26.9201 250.182 26.3167C250.759 25.7132 251.546 25.4115 252.543 25.4115H252.701Z" stroke="#656074"/>
<path d="M263.838 33.0267V26.1986C263.838 24.9786 263.523 24.021 262.893 23.3257C262.277 22.6304 261.398 22.2828 260.256 22.2828C259.876 22.2828 259.535 22.3287 259.233 22.4205C258.932 22.5123 258.656 22.637 258.407 22.7944C258.158 22.9518 257.928 23.1355 257.718 23.3454C257.521 23.5421 257.338 23.752 257.167 23.975V22.4795H254.176V33.0267H257.167V27.1431C257.167 26.4347 257.331 25.9034 257.659 25.5492C258 25.1819 258.459 24.9983 259.036 24.9983C259.614 24.9983 260.06 25.1819 260.375 25.5492C260.689 25.9034 260.847 26.4347 260.847 27.1431V33.0267H263.838Z" stroke="#656074"/>
<path d="M269.25 21.3186V18.6621H266.102V21.3186H269.25ZM269.171 33.0267V22.4795H266.18V33.0267H269.171Z" stroke="#656074"/>
<path d="M282.488 27.7728V27.7334C282.488 26.9726 282.344 26.2642 282.055 25.6083C281.767 24.9392 281.367 24.362 280.855 23.8767C280.356 23.3782 279.76 22.9912 279.064 22.7157C278.369 22.4271 277.615 22.2828 276.801 22.2828C275.975 22.2828 275.214 22.4271 274.519 22.7157C273.824 23.0043 273.22 23.3978 272.708 23.8963C272.197 24.3948 271.797 24.9786 271.508 25.6476C271.22 26.3035 271.075 27.0119 271.075 27.7728V27.8122C271.075 28.573 271.22 29.288 271.508 29.957C271.797 30.6129 272.19 31.1901 272.689 31.6886C273.2 32.174 273.804 32.561 274.499 32.8496C275.194 33.1251 275.949 33.2628 276.762 33.2628C277.589 33.2628 278.349 33.1185 279.045 32.8299C279.74 32.5413 280.343 32.1478 280.855 31.6493C281.367 31.1508 281.767 30.5736 282.055 29.9177C282.344 29.2486 282.488 28.5337 282.488 27.7728ZM279.537 27.8122C279.537 28.2057 279.471 28.5796 279.34 28.9338C279.222 29.2749 279.045 29.5766 278.809 29.8389C278.572 30.1013 278.284 30.3112 277.943 30.4686C277.615 30.6129 277.234 30.6851 276.801 30.6851C276.382 30.6851 276.001 30.6064 275.66 30.4489C275.332 30.2915 275.044 30.0816 274.794 29.8193C274.545 29.5438 274.355 29.2355 274.224 28.8944C274.092 28.5402 274.027 28.1664 274.027 27.7728V27.7334C274.027 27.3399 274.086 26.9726 274.204 26.6315C274.335 26.2773 274.519 25.969 274.755 25.7067C274.991 25.4443 275.273 25.241 275.601 25.0967C275.942 24.9392 276.329 24.8605 276.762 24.8605C277.169 24.8605 277.543 24.9392 277.884 25.0967C278.225 25.2541 278.52 25.4705 278.769 25.746C279.018 26.0084 279.209 26.3167 279.34 26.6709C279.471 27.0119 279.537 27.3793 279.537 27.7728V27.8122Z" stroke="#656074"/>
<defs>
<filter id="filter0_d_217_44" x="0.0331067" y="27.7305" width="74.6232" height="24.2033" filterUnits="userSpaceOnUse" color-interpolation-filters="sRGB">
<feFlood flood-opacity="0" result="BackgroundImageFix"/>
<feColorMatrix in="SourceAlpha" type="matrix" values="0 0 0 0 0 0 0 0 0 0 0 0 0 0 0 0 0 0 127 0" result="hardAlpha"/>
<feOffset dy="0.966893"/>
<feGaussianBlur stdDeviation="0.483447"/>
<feComposite in2="hardAlpha" operator="out"/>
<feColorMatrix type="matrix" values="0 0 0 0 0 0 0 0 0 0 0 0 0 0 0 0 0 0 0.25 0"/>
<feBlend mode="normal" in2="BackgroundImageFix" result="effect1_dropShadow_217_44"/>
<feBlend mode="normal" in="SourceGraphic" in2="effect1_dropShadow_217_44" result="shape"/>
</filter>
</defs>
</svg>
